<svg width="89" height="43" viewBox="0 0 89 43" fill="none" xmlns="http://www.w3.org/2000/svg">
<g clip-path="url(#clip0_5_171)">
<path d="M1.01611 6.80322C3.97998 6.5835 5.91357 6.47363 6.81689 6.47363C7.7251 6.47363 8.44043 6.55908 8.96289 6.72998C9.49023 6.896 9.96143 7.12793 10.3765 7.42578C11.1821 7.99707 11.79 8.75635 12.2002 9.70361C12.6152 10.6509 12.8228 11.6104 12.8228 12.582C12.8228 13.5537 12.6641 14.4033 12.3467 15.1309C12.0342 15.8535 11.5996 16.4639 11.043 16.9619C9.90527 17.9922 8.43311 18.5049 6.62646 18.5H1.01611V6.80322ZM5.57178 10.5166V14.9771C5.83057 14.7573 6.11133 14.54 6.41406 14.3252C7.57617 13.4902 8.15723 12.6162 8.15723 11.7031C8.15723 11.2588 8.02539 10.8486 7.76172 10.4727C7.49805 10.0918 7.15381 9.90137 6.729 9.90137C6.30908 9.90137 5.92334 10.1064 5.57178 10.5166ZM16.5142 5.17725C17.2319 5.17725 17.7642 5.32861 18.1108 5.63135C18.4575 5.9292 18.6284 6.31006 18.6235 6.77393C18.6235 7.23779 18.4014 7.66504 17.957 8.05566C17.5176 8.44629 16.9292 8.6416 16.1919 8.6416C15.1567 8.6416 14.5122 8.3291 14.2583 7.7041C14.1851 7.52832 14.1484 7.33301 14.1484 7.11816C14.1484 6.90332 14.1997 6.67871 14.3022 6.44434C14.4048 6.20996 14.5586 6 14.7637 5.81445C15.2178 5.38965 15.8013 5.17725 16.5142 5.17725ZM18.499 18.5H14.2583V9.396H18.499V18.5ZM27.0098 12.1279C25.9258 11.874 25.1372 11.7471 24.644 11.7471C24.5024 11.7471 24.3926 11.7788 24.3145 11.8423C24.2412 11.9058 24.2046 11.9766 24.2046 12.0547C24.2046 12.2158 24.4048 12.3794 24.8052 12.5454C25.2104 12.7065 25.5815 12.8652 25.9185 13.0215C26.2554 13.1777 26.5459 13.3682 26.79 13.5928C27.3174 14.0811 27.5811 14.8086 27.5811 15.7754C27.5811 16.7373 27.2319 17.4771 26.5337 17.9946C25.8354 18.5122 24.8906 18.771 23.6992 18.771C22.5078 18.771 21.5557 18.6611 20.8428 18.4414C20.5303 18.3486 20.291 18.2388 20.125 18.1118V15.3945C20.1934 15.3994 20.313 15.4312 20.4839 15.4897C20.6548 15.5483 20.938 15.6411 21.3335 15.7681C21.729 15.8901 22.0879 15.9512 22.4102 15.9512C22.7373 15.9512 22.9009 15.8315 22.9009 15.5923C22.9009 15.4067 22.7544 15.2261 22.4614 15.0503C22.3296 14.9722 22.1807 14.8916 22.0146 14.8086C21.3262 14.4717 20.833 14.0835 20.5352 13.644C20.2422 13.1997 20.0957 12.6797 20.0957 12.084C20.0957 11.0244 20.5254 10.2334 21.3848 9.71094C22.1074 9.27148 23.0522 9.05176 24.2192 9.05176C25.0347 9.05176 25.8525 9.13232 26.6729 9.29346C26.8486 9.32764 26.9609 9.35205 27.0098 9.3667V12.1279ZM34.334 15.7241C34.8271 15.7241 35.54 15.375 36.4727 14.6768V18.2583C34.8711 18.8638 33.394 18.9492 32.0415 18.5146C30.689 18.0801 29.7295 17.3037 29.1631 16.1855C28.8799 15.6191 28.7383 14.9551 28.7383 14.1934C28.7383 12.6602 29.2656 11.4175 30.3203 10.4653C31.375 9.51318 32.7471 9.03711 34.4365 9.03711C35.1348 9.03711 35.7646 9.14209 36.3262 9.35205V12.1719C36.1943 12.0596 36.0088 12.0034 35.7695 12.0034C35.5303 12.0034 35.2739 12.0791 35.0005 12.2305C34.7271 12.3818 34.478 12.5845 34.2534 12.8384C33.7358 13.4243 33.4771 14.0273 33.4771 14.6475C33.4819 15.2627 33.6699 15.6094 34.041 15.6875C34.1387 15.707 34.2363 15.7192 34.334 15.7241ZM44.5 11.9888C44.4023 11.9399 44.2754 11.9155 44.1191 11.9155C43.9678 11.9155 43.7993 11.9619 43.6138 12.0547C43.4282 12.1426 43.2451 12.2646 43.0645 12.4209C42.6836 12.7529 42.3638 13.1558 42.105 13.6294C41.8462 14.103 41.7168 14.54 41.7168 14.9404C41.7168 15.3359 41.8682 15.6021 42.1709 15.7388C42.2783 15.7876 42.4102 15.812 42.5664 15.812C42.7227 15.812 42.8862 15.7656 43.0571 15.6729C43.228 15.5752 43.3989 15.4458 43.5698 15.2847C43.9263 14.9478 44.2388 14.54 44.5073 14.0615C44.7759 13.5781 44.9102 13.146 44.9102 12.7651C44.9102 12.3843 44.7734 12.1255 44.5 11.9888ZM43.0791 18.771C41.6826 18.771 40.479 18.3291 39.4683 17.4453C38.3892 16.5078 37.8496 15.3286 37.8496 13.9077C37.8496 12.4819 38.355 11.3174 39.3657 10.4141C40.3765 9.50586 41.624 9.05176 43.1084 9.05176C44.5928 9.05176 45.8403 9.49609 46.8511 10.3848C47.8618 11.2686 48.3696 12.4526 48.3745 13.937C48.3794 14.8892 48.1377 15.7314 47.6494 16.4639C47.1611 17.1963 46.5093 17.7627 45.6938 18.1631C44.8784 18.5635 44.0068 18.7661 43.0791 18.771ZM54.146 13.6367C54.146 15.2383 54.5342 16.0391 55.3105 16.0391C55.7012 16.0391 55.9282 15.8486 55.9917 15.4678C56.0112 15.3506 56.021 15.2212 56.021 15.0796V9.396H60.3716V18.5H57.9692L56.9219 17.0718C56.3018 17.9165 55.4058 18.4658 54.2339 18.7197C52.7983 19.0273 51.6411 18.7832 50.7622 17.9873C50.0981 17.3867 49.7661 16.5933 49.7661 15.6069V9.396H54.146V13.6367ZM68.6406 12.8311C68.1914 12.8311 67.73 12.9946 67.2563 13.3218C66.7827 13.6489 66.5435 13.959 66.5386 14.252V18.5H62.1294V9.396H66.5386V10.3701C66.7876 9.99414 67.0952 9.69385 67.4614 9.46924C67.8325 9.24463 68.2256 9.11035 68.6406 9.06641V12.8311ZM76.668 12.1279C75.584 11.874 74.7954 11.7471 74.3022 11.7471C74.1606 11.7471 74.0508 11.7788 73.9727 11.8423C73.8994 11.9058 73.8628 11.9766 73.8628 12.0547C73.8628 12.2158 74.063 12.3794 74.4634 12.5454C74.8687 12.7065 75.2397 12.8652 75.5767 13.0215C75.9136 13.1777 76.2041 13.3682 76.4482 13.5928C76.9756 14.0811 77.2393 14.8086 77.2393 15.7754C77.2393 16.7373 76.8901 17.4771 76.1919 17.9946C75.4937 18.5122 74.5488 18.771 73.3574 18.771C72.166 18.771 71.2139 18.6611 70.501 18.4414C70.1885 18.3486 69.9492 18.2388 69.7832 18.1118V15.3945C69.8516 15.3994 69.9712 15.4312 70.1421 15.4897C70.313 15.5483 70.5962 15.6411 70.9917 15.7681C71.3872 15.8901 71.7461 15.9512 72.0684 15.9512C72.3955 15.9512 72.5591 15.8315 72.5591 15.5923C72.5591 15.4067 72.4126 15.2261 72.1196 15.0503C71.9878 14.9722 71.8389 14.8916 71.6729 14.8086C70.9844 14.4717 70.4912 14.0835 70.1934 13.644C69.9004 13.1997 69.7539 12.6797 69.7539 12.084C69.7539 11.0244 70.1836 10.2334 71.043 9.71094C71.7656 9.27148 72.7104 9.05176 73.8774 9.05176C74.6929 9.05176 75.5107 9.13232 76.3311 9.29346C76.5068 9.32764 76.6191 9.35205 76.668 9.3667V12.1279ZM84.6953 12.0034C84.6953 11.5737 84.4951 11.3589 84.0947 11.3589C83.6357 11.4028 83.3379 11.6396 83.2012 12.0693C83.1328 12.2744 83.084 12.5137 83.0547 12.7871C83.0303 13.0557 82.9912 13.3438 82.9375 13.6514L84.5415 13.2925L84.6807 12.1719L84.6953 12.0034ZM83.7065 15.3359C83.7065 15.3359 83.5723 15.3359 83.3037 15.3359C83.1768 15.3359 83.0547 15.3311 82.9375 15.3213C82.9375 15.9023 83.2476 16.2197 83.8677 16.2734C84.0386 16.2881 84.2046 16.2954 84.3657 16.2954C84.7808 16.2954 85.3008 16.2002 85.9258 16.0098C86.5557 15.8193 87.1196 15.5093 87.6177 15.0796L88.0718 17.3574C86.9829 18.2998 85.3374 18.771 83.1353 18.771C81.8706 18.771 80.7842 18.4023 79.876 17.665C78.8896 16.8594 78.3965 15.7437 78.3965 14.3179C78.3965 13.2437 78.6748 12.2793 79.2314 11.4248C79.749 10.6436 80.4497 10.0503 81.3335 9.64502C82.2173 9.23975 83.1719 9.03711 84.1973 9.03711C85.5254 9.03711 86.5288 9.32764 87.2075 9.90869C87.8911 10.4897 88.2305 11.2075 88.2256 12.062C88.2256 12.9165 87.8179 13.6758 87.0024 14.3398C86.187 15.0039 85.0884 15.3359 83.7065 15.3359Z" fill="white"/>
<path d="M8.20605 23.8032H12.769V35.5H8.20605V31.1787L5.77441 31.3911V35.5H1.21875V23.8032H5.77441V28.0293L8.20605 27.8315V23.8032ZM18.8848 30.6367C18.8848 32.2383 19.2729 33.0391 20.0493 33.0391C20.4399 33.0391 20.667 32.8486 20.7305 32.4678C20.75 32.3506 20.7598 32.2212 20.7598 32.0796V26.396H25.1104V35.5H22.708L21.6606 34.0718C21.0405 34.9165 20.1445 35.4658 18.9727 35.7197C17.5371 36.0273 16.3799 35.7832 15.501 34.9873C14.8369 34.3867 14.5049 33.5933 14.5049 32.6069V26.396H18.8848V30.6367ZM33.8335 35.522C33.1792 35.6978 32.2832 35.7856 31.1455 35.7856C30.0078 35.7856 28.5869 35.6514 26.8828 35.3828V23.1733H31.1455V27.4727C31.7754 26.877 32.5396 26.4985 33.438 26.3374C33.6821 26.2935 33.897 26.2715 34.0825 26.2715C35.3569 26.2715 36.3481 26.6987 37.0562 27.5532C37.7642 28.4077 38.1182 29.4526 38.1182 30.688C38.1182 31.3472 37.9302 32.0332 37.5542 32.7461C36.8218 34.1328 35.5815 35.0581 33.8335 35.522ZM33.2549 29.3184C32.6152 29.3184 31.9048 29.6382 31.1235 30.2778V33.0391H31.8486C32.3369 33.0391 32.813 32.7437 33.2769 32.1528C33.7456 31.5571 33.98 30.9468 33.98 30.3218C33.98 29.8774 33.8506 29.5723 33.5918 29.4062C33.499 29.3477 33.3867 29.3184 33.2549 29.3184Z" fill="white"/>
<path d="M51.0018 23.6C51.9683 23.6005 52.9221 23.82 53.7917 24.2418C54.6612 24.6637 55.4239 25.277 56.0226 26.0358C56.6212 26.7946 57.0402 27.6791 57.2482 28.6229C57.4562 29.5668 57.4476 30.5454 57.2233 31.4855C56.999 32.4256 56.5646 33.3027 55.9529 34.0509C55.3411 34.7992 54.5678 35.3991 53.6911 35.8058C52.8143 36.2125 51.8568 36.4153 50.8905 36.3991C49.9241 36.3828 48.974 36.1479 48.1114 35.712L48.0146 35.66L45.0986 36.388C45.0425 36.4021 44.984 36.4038 44.9271 36.3931C44.8702 36.3824 44.8164 36.3595 44.7692 36.326C44.7221 36.2925 44.6827 36.2491 44.654 36.1989C44.6252 36.1487 44.6077 36.0928 44.6026 36.0352V35.9696L44.6138 35.9032L45.3418 32.988L45.2914 32.892C44.9253 32.1713 44.7 31.3874 44.6274 30.5824L44.6074 30.2768L44.6018 30C44.6018 28.3026 45.2761 26.6747 46.4763 25.4745C47.6766 24.2742 49.3044 23.6 51.0018 23.6ZM51.4018 30.8H49.0018L48.9298 30.8064C48.8376 30.8231 48.7541 30.8716 48.6941 30.9435C48.634 31.0155 48.6011 31.1062 48.6011 31.2C48.6011 31.2937 48.634 31.3844 48.6941 31.4564C48.7541 31.5283 48.8376 31.5769 48.9298 31.5936L49.0018 31.6H51.4018L51.4738 31.5936C51.566 31.5769 51.6495 31.5283 51.7095 31.4564C51.7696 31.3844 51.8025 31.2937 51.8025 31.2C51.8025 31.1062 51.7696 31.0155 51.7095 30.9435C51.6495 30.8716 51.566 30.8231 51.4738 30.8064L51.4018 30.8ZM53.0018 28.4H49.0018L48.9298 28.4064C48.8376 28.4231 48.7541 28.4716 48.6941 28.5435C48.634 28.6155 48.6011 28.7062 48.6011 28.8C48.6011 28.8937 48.634 28.9844 48.6941 29.0564C48.7541 29.1283 48.8376 29.1769 48.9298 29.1936L49.0018 29.2H53.0018L53.0738 29.1936C53.166 29.1769 53.2495 29.1283 53.3095 29.0564C53.3696 28.9844 53.4025 28.8937 53.4025 28.8C53.4025 28.7062 53.3696 28.6155 53.3095 28.5435C53.2495 28.4716 53.166 28.4231 53.0738 28.4064L53.0018 28.4Z" fill="#B7B7B7"/>
</g>
<defs>
<clipPath id="clip0_5_171">
<rect width="89" height="42" fill="white" transform="translate(0 0.5)"/>
</clipPath>
</defs>
</svg>
