<svg width="160" height="77" viewBox="0 0 160 77" fill="none" xmlns="http://www.w3.org/2000/svg">
<g clip-path="url(#clip0_3_104)">
<path d="M1.729 11.4458C7.06396 11.0503 10.5444 10.8525 12.1704 10.8525C13.8052 10.8525 15.0928 11.0063 16.0332 11.314C16.9824 11.6128 17.8306 12.0303 18.5776 12.5664C20.0278 13.5947 21.1221 14.9614 21.8604 16.6665C22.6074 18.3716 22.981 20.0986 22.981 21.8477C22.981 23.5967 22.6953 25.126 22.124 26.4355C21.5615 27.7363 20.7793 28.835 19.7773 29.7314C17.7295 31.5859 15.0796 32.5088 11.8276 32.5H1.729V11.4458ZM9.9292 18.1299V26.1587C10.395 25.7632 10.9004 25.3721 11.4453 24.9854C13.5371 23.4824 14.583 21.9092 14.583 20.2656C14.583 19.4658 14.3457 18.7275 13.8711 18.0508C13.3965 17.3652 12.7769 17.0225 12.0122 17.0225C11.2563 17.0225 10.562 17.3916 9.9292 18.1299ZM29.6255 8.51904C30.9175 8.51904 31.8755 8.7915 32.4995 9.33643C33.1235 9.87256 33.4312 10.5581 33.4224 11.3931C33.4224 12.228 33.0225 12.9971 32.2227 13.7002C31.4316 14.4033 30.3726 14.7549 29.0454 14.7549C27.1821 14.7549 26.022 14.1924 25.5649 13.0674C25.4331 12.751 25.3672 12.3994 25.3672 12.0127C25.3672 11.626 25.4595 11.2217 25.644 10.7998C25.8286 10.3779 26.1055 10 26.4746 9.66602C27.292 8.90137 28.3423 8.51904 29.6255 8.51904ZM33.1982 32.5H25.5649V16.1128H33.1982V32.5ZM48.5176 21.0303C46.5664 20.5732 45.147 20.3447 44.2593 20.3447C44.0044 20.3447 43.8066 20.4019 43.666 20.5161C43.5342 20.6304 43.4683 20.7578 43.4683 20.8984C43.4683 21.1885 43.8286 21.4829 44.5493 21.7817C45.2788 22.0718 45.9468 22.3574 46.5532 22.6387C47.1597 22.9199 47.6826 23.2627 48.1221 23.667C49.0713 24.5459 49.5459 25.8555 49.5459 27.5957C49.5459 29.3271 48.9175 30.6587 47.6606 31.5903C46.4038 32.522 44.7031 32.9878 42.5586 32.9878C40.4141 32.9878 38.7002 32.79 37.417 32.3945C36.8545 32.2275 36.4238 32.0298 36.125 31.8013V26.9102C36.248 26.9189 36.4634 26.9761 36.771 27.0815C37.0786 27.187 37.5884 27.354 38.3003 27.5825C39.0122 27.8022 39.6582 27.9121 40.2383 27.9121C40.8271 27.9121 41.1216 27.6968 41.1216 27.2661C41.1216 26.9321 40.8579 26.6069 40.3306 26.2905C40.0933 26.1499 39.8252 26.0049 39.5264 25.8555C38.2871 25.249 37.3994 24.5503 36.8633 23.7593C36.3359 22.9595 36.0723 22.0234 36.0723 20.9512C36.0723 19.0439 36.8457 17.6201 38.3926 16.6797C39.6934 15.8887 41.394 15.4932 43.4946 15.4932C44.9624 15.4932 46.4346 15.6382 47.9111 15.9282C48.2275 15.9897 48.4297 16.0337 48.5176 16.0601V21.0303ZM61.7012 27.5034C62.5889 27.5034 63.8721 26.875 65.5508 25.6182V32.0649C62.668 33.1548 60.0093 33.3086 57.5747 32.5264C55.1401 31.7441 53.4131 30.3467 52.3936 28.334C51.8838 27.3145 51.6289 26.1191 51.6289 24.748C51.6289 21.9883 52.5781 19.7515 54.4766 18.0376C56.375 16.3237 58.8447 15.4668 61.8857 15.4668C63.1426 15.4668 64.2764 15.6558 65.2871 16.0337V21.1094C65.0498 20.9072 64.7158 20.8062 64.2852 20.8062C63.8545 20.8062 63.3931 20.9424 62.9009 21.2148C62.4087 21.4873 61.9604 21.8521 61.5562 22.3091C60.6245 23.3638 60.1587 24.4492 60.1587 25.5654C60.1675 26.6729 60.5059 27.2969 61.1738 27.4375C61.3496 27.4727 61.5254 27.4946 61.7012 27.5034ZM80 20.7798C79.8242 20.6919 79.5957 20.6479 79.3145 20.6479C79.042 20.6479 78.7388 20.7314 78.4048 20.8984C78.0708 21.0566 77.7412 21.2764 77.416 21.5576C76.7305 22.1553 76.1548 22.8804 75.689 23.7329C75.2231 24.5854 74.9902 25.3721 74.9902 26.0928C74.9902 26.8047 75.2627 27.2837 75.8076 27.5298C76.001 27.6177 76.2383 27.6616 76.5195 27.6616C76.8008 27.6616 77.0952 27.5781 77.4028 27.4111C77.7104 27.2354 78.0181 27.0024 78.3257 26.7124C78.9673 26.106 79.5298 25.3721 80.0132 24.5107C80.4966 23.6406 80.7383 22.8628 80.7383 22.1772C80.7383 21.4917 80.4922 21.0259 80 20.7798ZM77.4424 32.9878C74.9287 32.9878 72.7622 32.1924 70.9429 30.6016C69.0005 28.9141 68.0293 26.7915 68.0293 24.2339C68.0293 21.6675 68.939 19.5713 70.7583 17.9453C72.5776 16.3105 74.8232 15.4932 77.4951 15.4932C80.167 15.4932 82.4126 16.293 84.2319 17.8926C86.0513 19.4834 86.9653 21.6147 86.9741 24.2866C86.9829 26.0005 86.5479 27.5166 85.6689 28.835C84.79 30.1533 83.6167 31.1729 82.1489 31.8936C80.6812 32.6143 79.1123 32.979 77.4424 32.9878ZM97.3628 23.7461C97.3628 26.6289 98.0615 28.0703 99.459 28.0703C100.162 28.0703 100.571 27.7275 100.685 27.042C100.72 26.8311 100.738 26.5981 100.738 26.3433V16.1128H108.569V32.5H104.245L102.359 29.9292C101.243 31.4497 99.6304 32.4385 97.521 32.8955C94.937 33.4492 92.854 33.0098 91.272 31.5771C90.0767 30.4961 89.479 29.0679 89.479 27.2925V16.1128H97.3628V23.7461ZM123.453 22.2959C122.645 22.2959 121.814 22.5903 120.961 23.1792C120.109 23.7681 119.678 24.3262 119.669 24.8535V32.5H111.733V16.1128H119.669V17.8662C120.118 17.1895 120.671 16.6489 121.331 16.2446C121.999 15.8403 122.706 15.5986 123.453 15.5195V22.2959ZM137.902 21.0303C135.951 20.5732 134.532 20.3447 133.644 20.3447C133.389 20.3447 133.191 20.4019 133.051 20.5161C132.919 20.6304 132.853 20.7578 132.853 20.8984C132.853 21.1885 133.213 21.4829 133.934 21.7817C134.664 22.0718 135.332 22.3574 135.938 22.6387C136.544 22.9199 137.067 23.2627 137.507 23.667C138.456 24.5459 138.931 25.8555 138.931 27.5957C138.931 29.3271 138.302 30.6587 137.045 31.5903C135.789 32.522 134.088 32.9878 131.943 32.9878C129.799 32.9878 128.085 32.79 126.802 32.3945C126.239 32.2275 125.809 32.0298 125.51 31.8013V26.9102C125.633 26.9189 125.848 26.9761 126.156 27.0815C126.463 27.187 126.973 27.354 127.685 27.5825C128.397 27.8022 129.043 27.9121 129.623 27.9121C130.212 27.9121 130.506 27.6968 130.506 27.2661C130.506 26.9321 130.243 26.6069 129.715 26.2905C129.478 26.1499 129.21 26.0049 128.911 25.8555C127.672 25.249 126.784 24.5503 126.248 23.7593C125.721 22.9595 125.457 22.0234 125.457 20.9512C125.457 19.0439 126.23 17.6201 127.777 16.6797C129.078 15.8887 130.779 15.4932 132.879 15.4932C134.347 15.4932 135.819 15.6382 137.296 15.9282C137.612 15.9897 137.814 16.0337 137.902 16.0601V21.0303ZM152.352 20.8062C152.352 20.0327 151.991 19.646 151.271 19.646C150.444 19.7251 149.908 20.1514 149.662 20.9248C149.539 21.2939 149.451 21.7246 149.398 22.2168C149.354 22.7002 149.284 23.2188 149.188 23.7725L152.075 23.1265L152.325 21.1094L152.352 20.8062ZM150.572 26.8047C150.572 26.8047 150.33 26.8047 149.847 26.8047C149.618 26.8047 149.398 26.7959 149.188 26.7783C149.188 27.8242 149.746 28.3955 150.862 28.4922C151.169 28.5186 151.468 28.5317 151.758 28.5317C152.505 28.5317 153.441 28.3604 154.566 28.0176C155.7 27.6748 156.715 27.1167 157.612 26.3433L158.429 30.4434C156.469 32.1396 153.507 32.9878 149.543 32.9878C147.267 32.9878 145.312 32.3242 143.677 30.9971C141.901 29.5469 141.014 27.5386 141.014 24.9722C141.014 23.0386 141.515 21.3027 142.517 19.7646C143.448 18.3584 144.709 17.2905 146.3 16.561C147.891 15.8315 149.609 15.4668 151.455 15.4668C153.846 15.4668 155.652 15.9897 156.874 17.0356C158.104 18.0815 158.715 19.3735 158.706 20.9116C158.706 22.4497 157.972 23.8164 156.504 25.0117C155.037 26.207 153.059 26.8047 150.572 26.8047Z" fill="white"/>
<path d="M14.6709 41.4458H22.8843V62.5H14.6709V54.7217L10.2939 55.104V62.5H2.09375V41.4458H10.2939V49.0527L14.6709 48.6968V41.4458ZM33.8926 53.7461C33.8926 56.6289 34.5913 58.0703 35.9888 58.0703C36.6919 58.0703 37.1006 57.7275 37.2148 57.042C37.25 56.8311 37.2676 56.5981 37.2676 56.3433V46.1128H45.0986V62.5H40.7744L38.8892 59.9292C37.7729 61.4497 36.1602 62.4385 34.0508 62.8955C31.4668 63.4492 29.3838 63.0098 27.8018 61.5771C26.6064 60.4961 26.0088 59.0679 26.0088 57.2925V46.1128H33.8926V53.7461ZM60.8003 62.5396C59.6226 62.856 58.0098 63.0142 55.9619 63.0142C53.9141 63.0142 51.3564 62.7725 48.2891 62.2891V40.312H55.9619V48.0508C57.0957 46.9785 58.4712 46.2974 60.0884 46.0073C60.5278 45.9282 60.9146 45.8887 61.2485 45.8887C63.5425 45.8887 65.3267 46.6577 66.6011 48.1958C67.8755 49.7339 68.5127 51.6147 68.5127 53.8384C68.5127 55.0249 68.1743 56.2598 67.4976 57.543C66.1792 60.0391 63.9468 61.7046 60.8003 62.5396ZM59.7588 51.373C58.6074 51.373 57.3286 51.9487 55.9224 53.1001V58.0703H57.2275C58.1064 58.0703 58.9634 57.5386 59.7983 56.4751C60.6421 55.4028 61.064 54.3042 61.064 53.1792C61.064 52.3794 60.8311 51.8301 60.3652 51.5312C60.1982 51.4258 59.9961 51.373 59.7588 51.373Z" fill="white"/>
<path d="M94.0037 40.6999C95.9367 40.701 97.8443 41.1399 99.5834 41.9837C101.323 42.8274 102.848 44.054 104.045 45.5716C105.243 47.0891 106.081 48.8581 106.496 50.7458C106.912 52.6335 106.895 54.5909 106.447 56.4711C105.998 58.3513 105.129 60.1054 103.906 61.6019C102.682 63.0983 101.136 64.2983 99.3822 65.1116C97.6287 65.925 95.7137 66.3306 93.781 66.2981C91.8483 66.2656 89.9481 65.7958 88.2229 64.9239L88.0293 64.8199L82.1973 66.2759C82.085 66.3041 81.968 66.3077 81.8543 66.2863C81.7405 66.2649 81.6328 66.2191 81.5385 66.152C81.4442 66.0849 81.3655 65.9982 81.308 65.8977C81.2505 65.7973 81.2154 65.6856 81.2053 65.5703V65.4391L81.2277 65.3063L82.6837 59.4759L82.5829 59.2839C81.8507 57.8426 81.4 56.2749 81.2549 54.6647L81.2149 54.0535L81.2037 53.4999C81.2037 50.1051 82.5522 46.8494 84.9527 44.449C87.3532 42.0485 90.6089 40.6999 94.0037 40.6999ZM94.8037 55.0999H90.0037L89.8597 55.1127C89.6752 55.1461 89.5084 55.2432 89.3882 55.3871C89.268 55.531 89.2022 55.7125 89.2022 55.8999C89.2022 56.0874 89.268 56.2689 89.3882 56.4127C89.5084 56.5566 89.6752 56.6537 89.8597 56.6871L90.0037 56.6999H94.8037L94.9477 56.6871C95.1321 56.6537 95.299 56.5566 95.4192 56.4127C95.5393 56.2689 95.6051 56.0874 95.6051 55.8999C95.6051 55.7125 95.5393 55.531 95.4192 55.3871C95.299 55.2432 95.1321 55.1461 94.9477 55.1127L94.8037 55.0999ZM98.0037 50.2999H90.0037L89.8597 50.3127C89.6752 50.3461 89.5084 50.4432 89.3882 50.5871C89.268 50.731 89.2022 50.9125 89.2022 51.0999C89.2022 51.2874 89.268 51.4689 89.3882 51.6127C89.5084 51.7566 89.6752 51.8537 89.8597 51.8871L90.0037 51.8999H98.0037L98.1477 51.8871C98.3321 51.8537 98.499 51.7566 98.6192 51.6127C98.7393 51.4689 98.8051 51.2874 98.8051 51.0999C98.8051 50.9125 98.7393 50.731 98.6192 50.5871C98.499 50.4432 98.3321 50.3461 98.1477 50.3127L98.0037 50.2999Z" fill="#B7B7B7"/>
</g>
<defs>
<clipPath id="clip0_3_104">
<rect width="160" height="76" fill="white" transform="translate(0 0.5)"/>
</clipPath>
</defs>
</svg>
