<svg width="33" height="32" viewBox="0 0 33 32" fill="none" xmlns="http://www.w3.org/2000/svg">
<path d="M29.1665 5.33335H25.6109V8.00002C25.6109 8.25683 25.5603 8.51112 25.462 8.74838C25.3638 8.98564 25.2197 9.20122 25.0381 9.38281C24.8565 9.5644 24.641 9.70844 24.4037 9.80672C24.1664 9.90499 23.9122 9.95558 23.6553 9.95558C23.3985 9.95558 23.1442 9.90499 22.907 9.80672C22.6697 9.70844 22.4542 9.5644 22.2726 9.38281C22.091 9.20122 21.9469 8.98564 21.8487 8.74838C21.7504 8.51112 21.6998 8.25683 21.6998 8.00002V5.33335H11.3442V8.00002C11.3442 8.51867 11.1382 9.01607 10.7715 9.38281C10.4047 9.74955 9.90733 9.95558 9.38868 9.95558C8.87004 9.95558 8.37263 9.74955 8.0059 9.38281C7.63916 9.01607 7.43313 8.51867 7.43313 8.00002V5.33335H3.87757C3.66604 5.33095 3.45617 5.37098 3.26038 5.4511C3.06458 5.53121 2.88685 5.64978 2.73767 5.79978C2.5885 5.94978 2.47092 6.12817 2.3919 6.3244C2.31287 6.52064 2.27399 6.73073 2.27757 6.94224V26.8356C2.27404 27.0434 2.31148 27.2498 2.38775 27.4431C2.46401 27.6364 2.57762 27.8128 2.72207 27.9623C2.86652 28.1117 3.03899 28.2311 3.22963 28.3139C3.42027 28.3966 3.62534 28.441 3.83313 28.4445H29.1665C29.3743 28.441 29.5793 28.3966 29.77 28.3139C29.9606 28.2311 30.1331 28.1117 30.2775 27.9623C30.422 27.8128 30.5356 27.6364 30.6118 27.4431C30.6881 27.2498 30.7255 27.0434 30.722 26.8356V6.94224C30.7255 6.73446 30.6881 6.52801 30.6118 6.33469C30.5356 6.14137 30.422 5.96497 30.2775 5.81557C30.1331 5.66616 29.9606 5.54668 29.77 5.46394C29.5793 5.3812 29.3743 5.33683 29.1665 5.33335ZM9.38868 23.1111H7.61091V21.3334H9.38868V23.1111ZM9.38868 18.6667H7.61091V16.8889H9.38868V18.6667ZM9.38868 14.2222H7.61091V12.4445H9.38868V14.2222ZM14.722 23.1111H12.9442V21.3334H14.722V23.1111ZM14.722 18.6667H12.9442V16.8889H14.722V18.6667ZM14.722 14.2222H12.9442V12.4445H14.722V14.2222ZM20.0554 23.1111H18.2776V21.3334H20.0554V23.1111ZM20.0554 18.6667H18.2776V16.8889H20.0554V18.6667ZM20.0554 14.2222H18.2776V12.4445H20.0554V14.2222ZM25.3887 23.1111H23.6109V21.3334H25.3887V23.1111ZM25.3887 18.6667H23.6109V16.8889H25.3887V18.6667ZM25.3887 14.2222H23.6109V12.4445H25.3887V14.2222Z" fill="#B7B7B7"/>
<path d="M9.38889 8.88894C9.62464 8.88894 9.85073 8.79529 10.0174 8.62859C10.1841 8.46189 10.2778 8.2358 10.2778 8.00005V2.66672C10.2778 2.43097 10.1841 2.20488 10.0174 2.03818C9.85073 1.87148 9.62464 1.77783 9.38889 1.77783C9.15314 1.77783 8.92705 1.87148 8.76035 2.03818C8.59365 2.20488 8.5 2.43097 8.5 2.66672V8.00005C8.5 8.2358 8.59365 8.46189 8.76035 8.62859C8.92705 8.79529 9.15314 8.88894 9.38889 8.88894Z" fill="#B7B7B7"/>
<path d="M23.6111 8.88894C23.8468 8.88894 24.0729 8.79529 24.2396 8.62859C24.4063 8.46189 24.4999 8.2358 24.4999 8.00005V2.66672C24.4999 2.43097 24.4063 2.20488 24.2396 2.03818C24.0729 1.87148 23.8468 1.77783 23.6111 1.77783C23.3753 1.77783 23.1492 1.87148 22.9825 2.03818C22.8158 2.20488 22.7222 2.43097 22.7222 2.66672V8.00005C22.7222 8.2358 22.8158 8.46189 22.9825 8.62859C23.1492 8.79529 23.3753 8.88894 23.6111 8.88894Z" fill="#B7B7B7"/>
</svg>
