<svg width="33" height="33" viewBox="0 0 33 33" fill="none" xmlns="http://www.w3.org/2000/svg">
<path d="M1.38247 1.88247C1.95543 1.30969 2.73243 0.987915 3.54259 0.987915C4.35276 0.987915 5.12975 1.30969 5.70271 1.88247L16.5064 12.6861L27.31 1.88247C27.8863 1.32592 28.658 1.01796 29.4591 1.02492C30.2602 1.03188 31.0265 1.35321 31.593 1.91969C32.1595 2.48617 32.4808 3.25249 32.4878 4.05358C32.4948 4.85468 32.1868 5.62646 31.6302 6.2027L20.8266 17.0063L31.6302 27.81C32.1868 28.3862 32.4948 29.158 32.4878 29.9591C32.4808 30.7602 32.1595 31.5265 31.593 32.093C31.0265 32.6595 30.2602 32.9808 29.4591 32.9878C28.658 32.9947 27.8863 32.6868 27.31 32.1302L16.5064 21.3266L5.70271 32.1302C5.12647 32.6868 4.35469 32.9947 3.55359 32.9878C2.75249 32.9808 1.98618 32.6595 1.41969 32.093C0.85321 31.5265 0.531884 30.7602 0.524922 29.9591C0.517961 29.158 0.825921 28.3862 1.38247 27.81L12.1861 17.0063L1.38247 6.2027C0.809688 5.62975 0.487915 4.85275 0.487915 4.04259C0.487915 3.23243 0.809688 2.45543 1.38247 1.88247Z" fill="#fffffd"/>
</svg>
