<svg width="32" height="33" viewBox="0 0 32 33" fill="none" xmlns="http://www.w3.org/2000/svg">
<path d="M15.9999 0C12.8354 0 9.74201 0.938384 7.11082 2.69649C4.47963 4.45459 2.42888 6.95345 1.21787 9.87706C0.00687151 12.8007 -0.309982 16.0177 0.307382 19.1214C0.924745 22.2251 2.4486 25.0761 4.68624 27.3137C6.92388 29.5513 9.7748 31.0752 12.8785 31.6926C15.9822 32.3099 19.1993 31.9931 22.1229 30.7821C25.0465 29.5711 27.5454 27.5203 29.3035 24.8891C31.0616 22.2579 31.9999 19.1645 31.9999 16C31.9955 11.7579 30.3083 7.69085 27.3087 4.69124C24.3091 1.69163 20.242 0.00447972 15.9999 0ZM15.9999 29.5385C13.3223 29.5385 10.7048 28.7444 8.47838 27.2568C6.25199 25.7692 4.51673 23.6548 3.49204 21.1809C2.46734 18.7071 2.19924 15.985 2.72162 13.3588C3.24401 10.7326 4.53342 8.32025 6.42681 6.42686C8.32019 4.53347 10.7325 3.24406 13.3587 2.72168C15.9849 2.19929 18.7071 2.4674 21.1809 3.49209C23.6547 4.51679 25.7691 6.25204 27.2568 8.47843C28.7444 10.7048 29.5384 13.3223 29.5384 16C29.5343 19.5894 28.1067 23.0306 25.5686 25.5686C23.0305 28.1067 19.5893 29.5344 15.9999 29.5385ZM25.8461 16C25.8461 16.3264 25.7164 16.6395 25.4856 16.8703C25.2548 17.1011 24.9417 17.2308 24.6153 17.2308H15.9999C15.6735 17.2308 15.3605 17.1011 15.1297 16.8703C14.8988 16.6395 14.7692 16.3264 14.7692 16V7.38461C14.7692 7.05819 14.8988 6.74514 15.1297 6.51433C15.3605 6.28352 15.6735 6.15385 15.9999 6.15385C16.3264 6.15385 16.6394 6.28352 16.8702 6.51433C17.101 6.74514 17.2307 7.05819 17.2307 7.38461V14.7692H24.6153C24.9417 14.7692 25.2548 14.8989 25.4856 15.1297C25.7164 15.3605 25.8461 15.6736 25.8461 16Z" fill="#B7B7B7"/>
</svg>
