<svg width="33" height="33" viewBox="0 0 33 33" fill="none" xmlns="http://www.w3.org/2000/svg">
<path d="M9.87998 0.5H23.32C28.44 0.5 32.6 4.66 32.6 9.78V23.22C32.6 25.6812 31.6223 28.0416 29.8819 29.782C28.1416 31.5223 25.7812 32.5 23.32 32.5H9.87998C4.75998 32.5 0.599976 28.34 0.599976 23.22V9.78C0.599976 7.31879 1.57769 4.95839 3.31802 3.21805C5.05836 1.47771 7.41877 0.5 9.87998 0.5ZM9.55998 3.7C8.03233 3.7 6.56725 4.30686 5.48704 5.38707C4.40683 6.46727 3.79998 7.93235 3.79998 9.46V23.54C3.79998 26.724 6.37598 29.3 9.55998 29.3H23.64C25.1676 29.3 26.6327 28.6931 27.7129 27.6129C28.7931 26.5327 29.4 25.0676 29.4 23.54V9.46C29.4 6.276 26.824 3.7 23.64 3.7H9.55998ZM25 6.1C25.5304 6.1 26.0391 6.31071 26.4142 6.68579C26.7893 7.06086 27 7.56957 27 8.1C27 8.63043 26.7893 9.13914 26.4142 9.51421C26.0391 9.88929 25.5304 10.1 25 10.1C24.4695 10.1 23.9608 9.88929 23.5858 9.51421C23.2107 9.13914 23 8.63043 23 8.1C23 7.56957 23.2107 7.06086 23.5858 6.68579C23.9608 6.31071 24.4695 6.1 25 6.1ZM16.6 8.5C18.7217 8.5 20.7565 9.34285 22.2568 10.8431C23.7571 12.3434 24.6 14.3783 24.6 16.5C24.6 18.6217 23.7571 20.6566 22.2568 22.1569C20.7565 23.6571 18.7217 24.5 16.6 24.5C14.4782 24.5 12.4434 23.6571 10.9431 22.1569C9.44283 20.6566 8.59998 18.6217 8.59998 16.5C8.59998 14.3783 9.44283 12.3434 10.9431 10.8431C12.4434 9.34285 14.4782 8.5 16.6 8.5ZM16.6 11.7C15.3269 11.7 14.106 12.2057 13.2059 13.1059C12.3057 14.0061 11.8 15.227 11.8 16.5C11.8 17.773 12.3057 18.9939 13.2059 19.8941C14.106 20.7943 15.3269 21.3 16.6 21.3C17.873 21.3 19.0939 20.7943 19.9941 19.8941C20.8943 18.9939 21.4 17.773 21.4 16.5C21.4 15.227 20.8943 14.0061 19.9941 13.1059C19.0939 12.2057 17.873 11.7 16.6 11.7Z" fill="#B7B7B7"/>
</svg>
