<svg width="32" height="33" viewBox="0 0 32 33" fill="none" xmlns="http://www.w3.org/2000/svg">
<path d="M16 15.7C14.9391 15.7 13.9217 15.2786 13.1716 14.5284C12.4214 13.7783 12 12.7609 12 11.7C12 10.6391 12.4214 9.62172 13.1716 8.87157C13.9217 8.12143 14.9391 7.7 16 7.7C17.0609 7.7 18.0783 8.12143 18.8284 8.87157C19.5786 9.62172 20 10.6391 20 11.7C20 12.2253 19.8965 12.7454 19.6955 13.2307C19.4945 13.716 19.1999 14.157 18.8284 14.5284C18.457 14.8999 18.016 15.1945 17.5307 15.3955C17.0454 15.5965 16.5253 15.7 16 15.7ZM16 0.5C13.0296 0.5 10.1808 1.68 8.08041 3.7804C5.98 5.88081 4.8 8.72958 4.8 11.7C4.8 20.1 16 32.5 16 32.5C16 32.5 27.2 20.1 27.2 11.7C27.2 8.72958 26.02 5.88081 23.9196 3.7804C21.8192 1.68 18.9704 0.5 16 0.5Z" fill="#B7B7B7"/>
</svg>
