<svg width="33" height="33" viewBox="0 0 33 33" fill="none" xmlns="http://www.w3.org/2000/svg">
<path d="M24.6131 8.5H18.2131V11.7H24.6131C27.2531 11.7 29.4131 13.86 29.4131 16.5C29.4131 19.14 27.2531 21.3 24.6131 21.3H18.2131V24.5H24.6131C29.0291 24.5 32.6131 20.916 32.6131 16.5C32.6131 12.084 29.0291 8.5 24.6131 8.5ZM15.0131 21.3H8.6131C5.9731 21.3 3.8131 19.14 3.8131 16.5C3.8131 13.86 5.9731 11.7 8.6131 11.7H15.0131V8.5H8.6131C4.1971 8.5 0.613098 12.084 0.613098 16.5C0.613098 20.916 4.1971 24.5 8.6131 24.5H15.0131V21.3ZM10.2131 14.9H23.0131V18.1H10.2131V14.9Z" fill="#B7B7B7"/>
</svg>
