<svg width="6" height="10" viewBox="0 0 6 10" fill="none" xmlns="http://www.w3.org/2000/svg">
<path fill-rule="evenodd" clip-rule="evenodd" d="M0.293308 5.7066C0.106041 5.5191 0.000854492 5.26493 0.000854492 4.99993C0.000854492 4.73493 0.106041 4.48077 0.293308 4.29327L4.06397 0.521267C4.25157 0.333759 4.50597 0.228453 4.77121 0.228516C4.90254 0.228547 5.03258 0.254445 5.15391 0.304733C5.27523 0.35502 5.38546 0.428712 5.47831 0.5216C5.57115 0.614488 5.64479 0.724754 5.69502 0.846102C5.74525 0.96745 5.77109 1.0975 5.77106 1.22884C5.77103 1.36017 5.74513 1.49021 5.69484 1.61153C5.64455 1.73286 5.57086 1.84309 5.47797 1.93593L2.41397 4.99993L5.47797 8.06393C5.57353 8.15614 5.64976 8.26645 5.70223 8.38842C5.75469 8.5104 5.78234 8.64161 5.78356 8.77439C5.78477 8.90717 5.75953 9.03886 5.70931 9.16178C5.65909 9.2847 5.58489 9.39638 5.49104 9.49032C5.39719 9.58426 5.28557 9.65856 5.1627 9.7089C5.03983 9.75924 4.90816 9.7846 4.77538 9.78351C4.6426 9.78242 4.51137 9.7549 4.38934 9.70255C4.26731 9.6502 4.15693 9.57407 4.06464 9.4786L0.291975 5.7066H0.293308Z" fill="#B7B7B7"/>
</svg>
