<svg width="33" height="26" viewBox="0 0 33 26" fill="none" xmlns="http://www.w3.org/2000/svg">
<path d="M3.7 25.7999C2.82 25.7999 2.06693 25.4869 1.4408 24.8607C0.814667 24.2346 0.501067 23.481 0.5 22.5999V3.39995C0.5 2.51995 0.8136 1.76688 1.4408 1.14075C2.068 0.514617 2.82107 0.201018 3.7 0.199951H29.3C30.18 0.199951 30.9336 0.513551 31.5608 1.14075C32.188 1.76795 32.5011 2.52102 32.5 3.39995V22.5999C32.5 23.4799 32.1869 24.2335 31.5608 24.8607C30.9347 25.4879 30.1811 25.801 29.3 25.7999H3.7ZM16.5 14.5999L29.3 6.59995V3.39995L16.5 11.3999L3.7 3.39995V6.59995L16.5 14.5999Z" fill="#B7B7B7"/>
</svg>
