<svg width="32" height="33" viewBox="0 0 32 33" fill="none" xmlns="http://www.w3.org/2000/svg">
<path d="M16 16.5C13.8 16.5 11.9167 15.7167 10.35 14.15C8.78333 12.5833 8 10.7 8 8.5C8 6.3 8.78333 4.41667 10.35 2.85C11.9167 1.28333 13.8 0.5 16 0.5C18.2 0.5 20.0833 1.28333 21.65 2.85C23.2167 4.41667 24 6.3 24 8.5C24 10.7 23.2167 12.5833 21.65 14.15C20.0833 15.7167 18.2 16.5 16 16.5ZM0 32.5V26.9C0 25.7667 0.292 24.7247 0.876 23.774C1.46 22.8233 2.23467 22.0987 3.2 21.6C5.26667 20.5667 7.36667 19.7913 9.5 19.274C11.6333 18.7567 13.8 18.4987 16 18.5C18.2 18.5 20.3667 18.7587 22.5 19.276C24.6333 19.7933 26.7333 20.568 28.8 21.6C29.7667 22.1 30.542 22.8253 31.126 23.776C31.71 24.7267 32.0013 25.768 32 26.9V32.5H0Z" fill="#B7B7B7"/>
</svg>
