<svg width="9" height="14" viewBox="0 0 9 14" fill="none" xmlns="http://www.w3.org/2000/svg">
<path fill-rule="evenodd" clip-rule="evenodd" d="M8.27535 6.0577C8.52504 6.3077 8.66528 6.64659 8.66528 6.99993C8.66528 7.35326 8.52504 7.69215 8.27535 7.94215L3.24779 12.9715C2.99766 13.2215 2.65846 13.3619 2.30481 13.3618C2.1297 13.3618 1.95631 13.3272 1.79455 13.2602C1.63278 13.1931 1.48581 13.0949 1.36201 12.971C1.23822 12.8472 1.14003 12.7002 1.07306 12.5384C1.00609 12.3766 0.971636 12.2032 0.971677 12.0281C0.971718 11.8529 1.00625 11.6796 1.0733 11.5178C1.14035 11.356 1.23861 11.2091 1.36246 11.0853L5.44779 6.99993L1.36246 2.91459C1.23505 2.79166 1.13341 2.64458 1.06346 2.48194C0.993502 2.3193 0.956638 2.14436 0.955017 1.96732C0.953396 1.79028 0.987049 1.61469 1.05401 1.4508C1.12098 1.28691 1.21991 1.138 1.34504 1.01275C1.47017 0.887498 1.61899 0.788424 1.78282 0.721305C1.94665 0.654187 2.12221 0.620369 2.29925 0.621823C2.47629 0.623277 2.65126 0.659975 2.81397 0.729776C2.97667 0.799576 3.12385 0.901082 3.2469 1.02837L8.27712 6.0577L8.27535 6.0577Z" fill="#B7B7B7"/>
</svg>
