<svg width="32" height="33" viewBox="0 0 32 33" fill="none" xmlns="http://www.w3.org/2000/svg">
<path d="M27.8603 6.48328C27.8602 6.00272 27.6693 5.54185 27.3295 5.20204C26.9896 4.86223 26.5288 4.67129 26.0482 4.67122L11.5491 4.6712C11.3085 4.66702 11.0695 4.7108 10.846 4.79999C10.6225 4.88917 10.419 5.02198 10.2473 5.19066C10.0757 5.35934 9.93936 5.56051 9.8463 5.78244C9.75324 6.00437 9.70532 6.24261 9.70532 6.48326C9.70532 6.72391 9.75324 6.96215 9.8463 7.18408C9.93936 7.40601 10.0757 7.60719 10.2473 7.77587C10.419 7.94455 10.6225 8.07735 10.846 8.16654C11.0695 8.25573 11.3085 8.29951 11.5491 8.29533L21.6731 8.29534L4.70203 25.2664C4.36215 25.6063 4.17121 26.0673 4.17121 26.5479C4.17121 27.0286 4.36216 27.4896 4.70204 27.8295C5.04191 28.1693 5.50289 28.3603 5.98355 28.3603C6.46421 28.3603 6.92519 28.1693 7.26507 27.8295L24.2362 10.8584L24.2362 20.9823C24.2444 21.4575 24.439 21.9104 24.7779 22.2435C25.1168 22.5765 25.573 22.7632 26.0482 22.7632C26.5234 22.7632 26.9796 22.5765 27.3186 22.2435C27.6575 21.9104 27.852 21.4575 27.8603 20.9823L27.8603 6.48328Z" fill="#B7B7B7"/>
</svg>
