<svg width="32" height="33" viewBox="0 0 32 33" fill="none" xmlns="http://www.w3.org/2000/svg">
<path d="M12.8 21.8L21.104 17L12.8 12.2V21.8ZM31.296 9.27199C31.504 10.024 31.648 11.032 31.744 12.312C31.856 13.592 31.904 14.696 31.904 15.656L32 17C32 20.504 31.744 23.08 31.296 24.728C30.896 26.168 29.968 27.096 28.528 27.496C27.776 27.704 26.4 27.848 24.288 27.944C22.208 28.056 20.304 28.104 18.544 28.104L16 28.2C9.296 28.2 5.12 27.944 3.472 27.496C2.032 27.096 1.104 26.168 0.704 24.728C0.496 23.976 0.352 22.968 0.256 21.688C0.144 20.408 0.0959999 19.304 0.0959999 18.344L0 17C0 13.496 0.256 10.92 0.704 9.27199C1.104 7.83199 2.032 6.90399 3.472 6.50399C4.224 6.29599 5.6 6.15199 7.712 6.05599C9.792 5.94399 11.696 5.89599 13.456 5.89599L16 5.79999C22.704 5.79999 26.88 6.05599 28.528 6.50399C29.968 6.90399 30.896 7.83199 31.296 9.27199Z" fill="#B7B7B7"/>
</svg>
